<?xml version="1.0" standalone="no"?>
<!DOCTYPE svg PUBLIC "-//W3C//DTD SVG 20010904//EN"
 "http://www.w3.org/TR/2001/REC-SVG-20010904/DTD/svg10.dtd">
<svg version="1.0" xmlns="http://www.w3.org/2000/svg"
 width="159.000000pt" height="83.000000pt" viewBox="0 0 159.000000 83.000000"
 preserveAspectRatio="xMidYMid meet">

<g transform="translate(0.000000,83.000000) scale(0.100000,-0.100000)"
fill="#000000" stroke="none">
<path d="M555 783 c-198 -26 -413 -108 -481 -184 -17 -20 -15 -20 27 5 128 74
321 116 530 116 191 -1 314 -22 455 -81 255 -106 332 -292 184 -440 -27 -27
-54 -49 -60 -49 -5 0 -10 -4 -10 -10 0 -26 183 66 250 127 61 54 80 96 80 170
0 49 -5 67 -29 104 -73 109 -255 197 -484 234 -85 14 -379 19 -462 8z"/>
<path d="M168 433 c-101 -146 -108 -156 -108 -165 0 -5 17 -8 39 -8 33 0 42 5
62 35 l24 35 85 0 85 0 23 -35 c20 -31 27 -35 67 -35 25 0 45 4 45 9 0 5 -40
67 -88 138 -82 120 -90 128 -123 131 -35 3 -37 1 -111 -105z m126 -15 c23 -33
20 -38 -24 -38 -45 0 -46 1 -24 35 20 31 29 31 48 3z"/>
<path d="M625 531 c-44 -11 -70 -27 -99 -62 -47 -55 -25 -148 43 -183 45 -24
147 -35 221 -25 86 12 90 14 90 45 0 24 -3 26 -27 19 -16 -4 -62 -9 -103 -11
-61 -4 -81 -2 -110 14 -43 24 -58 59 -41 100 22 52 99 69 224 50 47 -8 47 -7
47 21 0 24 -5 30 -31 35 -41 8 -176 6 -214 -3z"/>
<path d="M985 533 c-11 -3 -28 -12 -38 -21 -60 -53 -39 -88 78 -132 87 -33
106 -54 59 -66 -26 -7 -111 0 -151 12 -20 6 -23 3 -23 -24 0 -26 5 -31 33 -38
17 -4 61 -6 97 -6 101 1 160 31 160 82 0 37 -22 54 -110 85 -90 32 -99 39 -70
55 22 12 74 9 135 -6 22 -5 25 -3 25 20 0 19 -7 29 -26 36 -26 10 -132 12
-169 3z"/>
<path d="M1045 178 c-69 -37 -56 -129 19 -144 94 -17 148 98 66 141 -34 18
-57 19 -85 3z"/>
</g>
</svg>
